<svg width="24" height="24" viewBox="0 0 24 24" fill="none" xmlns="http://www.w3.org/2000/svg">
<path d="M16.2 21V18.45C16.2 17.6544 15.8839 16.8913 15.3213 16.3287C14.7587 15.7661 13.9956 15.45 13.2 15.45H10.8C10.0044 15.45 9.24129 15.7661 8.67868 16.3287C8.11607 16.8913 7.8 17.6544 7.8 18.45V21M21.75 15.75V13.95C21.75 13.1544 21.4339 12.3913 20.8713 11.8287C20.3087 11.2661 19.5456 10.95 18.75 10.95H16.5M2.25 15.75V13.95C2.25 13.1544 2.56607 12.3913 3.12868 11.8287C3.69129 11.2661 4.45435 10.95 5.25 10.95H7.5M14.4075 10.6575C14.4075 10.9737 14.3452 11.2867 14.2242 11.5788C14.1033 11.8709 13.9259 12.1363 13.7024 12.3599C13.4788 12.5834 13.2134 12.7608 12.9213 12.8817C12.6292 13.0027 12.3162 13.065 12 13.065C11.6838 13.065 11.3708 13.0027 11.0787 12.8817C10.7866 12.7608 10.5212 12.5834 10.2976 12.3599C10.0741 12.1363 9.89675 11.8709 9.77576 11.5788C9.65477 11.2867 9.5925 10.9737 9.5925 10.6575C9.5925 10.019 9.84615 9.40663 10.2976 8.95514C10.7491 8.50365 11.3615 8.25 12 8.25C12.6385 8.25 13.2509 8.50365 13.7024 8.95514C14.1539 9.40663 14.4075 10.019 14.4075 10.6575ZM20.1075 6.1575C20.1075 6.47366 20.0452 6.78672 19.9242 7.07881C19.8033 7.3709 19.6259 7.6363 19.4024 7.85986C19.1788 8.08342 18.9134 8.26075 18.6213 8.38174C18.3292 8.50273 18.0162 8.565 17.7 8.565C17.3838 8.565 17.0708 8.50273 16.7787 8.38174C16.4866 8.26075 16.2212 8.08342 15.9976 7.85986C15.7741 7.6363 15.5967 7.3709 15.4758 7.07881C15.3548 6.78672 15.2925 6.47366 15.2925 6.1575C15.2925 5.51899 15.5461 4.90663 15.9976 4.45514C16.4491 4.00365 17.0615 3.75 17.7 3.75C18.3385 3.75 18.9509 4.00365 19.4024 4.45514C19.8539 4.90663 20.1075 5.51899 20.1075 6.1575ZM8.8575 6.1575C8.8575 6.47366 8.79523 6.78672 8.67424 7.07881C8.55325 7.3709 8.37592 7.6363 8.15236 7.85986C7.9288 8.08342 7.6634 8.26075 7.37131 8.38174C7.07922 8.50273 6.76616 8.565 6.45 8.565C6.13384 8.565 5.82078 8.50273 5.52869 8.38174C5.2366 8.26075 4.9712 8.08342 4.74764 7.85986C4.52408 7.6363 4.34675 7.3709 4.22576 7.07881C4.10477 6.78672 4.0425 6.47366 4.0425 6.1575C4.0425 5.51899 4.29615 4.90663 4.74764 4.45514C5.19913 4.00365 5.81149 3.75 6.45 3.75C7.08851 3.75 7.70087 4.00365 8.15236 4.45514C8.60385 4.90663 8.8575 5.51899 8.8575 6.1575Z" stroke="#333333" stroke-width="2"/>
</svg>
