<svg width="24" height="24" viewBox="0 0 24 24" fill="none" xmlns="http://www.w3.org/2000/svg">
<path fill-rule="evenodd" clip-rule="evenodd" d="M19.5957 17.8054V15.8882C19.5957 15.4134 19.7843 14.9581 20.12 14.6224L21.4757 13.2665C22.1748 12.5675 22.1748 11.434 21.4757 10.7349L20.12 9.37911C19.7843 9.04339 19.5957 8.58807 19.5957 8.11329V6.19458C19.5957 5.20592 18.7943 4.40445 17.8057 4.40445H15.8872C15.4125 4.40445 14.9572 4.21583 14.6215 3.88012L13.2657 2.52431C12.5667 1.82523 11.4333 1.82523 10.7343 2.52431L9.37859 3.88012C9.04288 4.21583 8.5876 4.40445 8.11285 4.40445H6.19428C5.71929 4.40445 5.26378 4.59325 4.92805 4.92927C4.59232 5.2653 4.4039 5.72099 4.40428 6.19601V8.11329C4.40428 8.58807 4.21568 9.04339 3.87999 9.37911L2.52427 10.7349C1.82524 11.434 1.82524 12.5675 2.52427 13.2665L3.87999 14.6224C4.21568 14.9581 4.40428 15.4134 4.40428 15.8882V17.8054C4.40428 18.7941 5.20569 19.5956 6.19428 19.5956H8.11285C8.5876 19.5956 9.04288 19.7842 9.37859 20.1199L10.7343 21.4757C11.4333 22.1748 12.5667 22.1748 13.2657 21.4757L14.6215 20.1199C14.9572 19.7842 15.4125 19.5956 15.8872 19.5956H17.8043C18.2793 19.596 18.7349 19.4076 19.0709 19.0717C19.4069 18.7359 19.5957 18.2805 19.5957 17.8054Z" stroke="#333333" stroke-width="1.5" stroke-linecap="round" stroke-linejoin="round"/>
<path fill-rule="evenodd" clip-rule="evenodd" d="M7.58588 10.4142C7.01387 9.84229 6.84274 8.98206 7.15228 8.23468C7.46182 7.48731 8.19109 7 8.99999 7C9.80894 7 10.5382 7.48731 10.8476 8.23468C11.1573 8.98206 10.9862 9.84229 10.4141 10.4142C9.63308 11.1953 8.3669 11.1953 7.58588 10.4142Z" stroke="#333333" stroke-width="1.5" stroke-linecap="round" stroke-linejoin="round"/>
<path fill-rule="evenodd" clip-rule="evenodd" d="M13.5859 16.4144C13.0138 15.8422 12.8428 14.9821 13.1522 14.2348C13.4619 13.4872 14.1911 13 15 13C15.8089 13 16.5382 13.4872 16.8476 14.2348C17.1573 14.9821 16.9862 15.8422 16.4141 16.4144C15.6331 17.1952 14.367 17.1952 13.5859 16.4144Z" stroke="#333333" stroke-width="1.5" stroke-linecap="round"/>
<path d="M16 8L8 16" stroke="#333333" stroke-width="1.5" stroke-linecap="round"/>
</svg>
