<svg width="24" height="24" viewBox="0 0 24 24" fill="none" xmlns="http://www.w3.org/2000/svg">
<path d="M10.875 17H13.125V11H10.875V17ZM12 9C12.3188 9 12.5861 8.904 12.8021 8.712C13.0181 8.52 13.1257 8.28267 13.125 8C13.1243 7.71733 13.0162 7.48 12.801 7.288C12.5857 7.096 12.3188 7 12 7C11.6812 7 11.4143 7.096 11.199 7.288C10.9838 7.48 10.8758 7.71733 10.875 8C10.8743 8.28267 10.9823 8.52033 11.199 8.713C11.4158 8.90567 11.6827 9.00133 12 9ZM12 22C9.39375 21.4167 7.242 20.0873 5.54475 18.012C3.8475 15.9367 2.99925 13.6327 3 11.1V5L12 2L21 5V11.1C21 13.6333 20.1518 15.9377 18.4553 18.013C16.7588 20.0883 14.607 21.4173 12 22ZM12 19.9C13.95 19.35 15.5625 18.25 16.8375 16.6C18.1125 14.95 18.75 13.1167 18.75 11.1V6.375L12 4.125L5.25 6.375V11.1C5.25 13.1167 5.8875 14.95 7.1625 16.6C8.4375 18.25 10.05 19.35 12 19.9Z" fill="#333333"/>
</svg>
