<svg width="24" height="24" viewBox="0 0 24 24" fill="none" xmlns="http://www.w3.org/2000/svg">
<path d="M3 10V19C3 20.1046 3.89543 21 5 21H19C20.1046 21 21 20.1046 21 19V10" stroke="#333333" stroke-width="1.5"/>
<path d="M14.833 21V15C14.833 13.8954 13.9376 13 12.833 13H10.833C9.72844 13 8.83301 13.8954 8.83301 15V21" stroke="#333333" stroke-width="1.5" stroke-miterlimit="16"/>
<path d="M21.8183 9.36418L20.1243 3.43517C20.0507 3.17759 19.8153 3 19.5474 3H15.5L15.9753 8.70377C15.9909 8.89043 16.0923 9.05904 16.2532 9.15495C16.6425 9.38698 17.4052 9.81699 18 10C19.0158 10.3125 20.5008 10.1998 21.3465 10.0958C21.6982 10.0526 21.9157 9.7049 21.8183 9.36418Z" stroke="#333333" stroke-width="1.5"/>
<path d="M14.0003 10C14.5678 9.82538 15.2882 9.42589 15.6912 9.18807C15.8831 9.07486 15.9887 8.86103 15.9702 8.63904L15.5003 3H8.50032L8.0304 8.63904C8.0119 8.86103 8.11755 9.07486 8.30938 9.18807C8.71239 9.42589 9.43282 9.82538 10.0003 10C11.4933 10.4594 12.5073 10.4594 14.0003 10Z" stroke="#333333" stroke-width="1.5"/>
<path d="M3.87551 3.43517L2.1815 9.36418C2.08415 9.7049 2.30164 10.0526 2.65334 10.0958C3.499 10.1998 4.98408 10.3125 5.99984 10C6.59461 9.81699 7.35735 9.38698 7.74662 9.15495C7.90751 9.05904 8.00897 8.89043 8.02453 8.70377L8.49984 3H4.45242C4.18453 3 3.9491 3.17759 3.87551 3.43517Z" stroke="#333333" stroke-width="1.5"/>
</svg>
