<svg width="24" height="24" viewBox="0 0 24 24" fill="none" xmlns="http://www.w3.org/2000/svg">
<path d="M18.4121 16.1382C19.5322 16.232 20.3351 16.654 20.9365 17.2241C21.6444 17.8951 22.128 18.8262 22.4482 19.8354C22.7668 20.8393 22.9042 21.8592 22.96 22.6392C22.9677 22.7473 22.9717 22.8506 22.9766 22.9478H2.51758C2.52651 22.8696 2.53392 22.7874 2.54492 22.7026C2.64637 21.9206 2.83778 20.8946 3.19141 19.8823C3.86453 17.9555 4.98906 16.3985 6.93164 16.1831C8.31601 17.868 10.4792 19.1411 12.7129 19.1411C14.967 19.141 17.052 17.8337 18.4121 16.1382Z" stroke="#333333" stroke-width="2"/>
<path d="M12.708 4.02393C14.8941 4.02515 16.5632 5.68365 16.5635 7.60303C16.5635 8.64903 16.0908 10.3191 15.2754 11.7349C14.8736 12.4324 14.419 13.0145 13.9521 13.4106C13.4849 13.8071 13.0672 13.9682 12.709 13.9683C12.3523 13.9683 11.935 13.8075 11.4678 13.4106C11.0013 13.0143 10.5463 12.4326 10.1445 11.7349C9.32905 10.3186 8.85645 8.64815 8.85645 7.60303C8.85668 5.6817 10.5262 4.02427 12.708 4.02393Z" stroke="#333333" stroke-width="2"/>
<path d="M18.543 11.4863C18.5396 11.487 18.5349 11.4873 18.5293 11.4883C18.5391 11.4864 18.55 11.4845 18.5508 11.4844C18.5494 11.4847 18.5464 11.4857 18.543 11.4863ZM7.11719 5.59668H7.46484V9.34082C7.37903 9.37464 7.24784 9.40719 7.0791 9.40723C6.91097 9.40723 6.78037 9.37523 6.69531 9.3418V5.65625C6.77703 5.62434 6.90121 5.59482 7.06152 5.59277C7.07883 5.59367 7.09752 5.59668 7.11719 5.59668ZM18.334 5.56152C18.5093 5.56223 18.6438 5.59651 18.7295 5.63184L18.7373 9.50195H18.376C18.3531 9.50195 18.3316 9.50466 18.3115 9.50586C18.1424 9.50364 18.0123 9.47129 17.9287 9.43652V5.56934C17.9295 5.56615 17.9298 5.56282 17.9307 5.55957L18.334 5.56152ZM17.8604 5.76562C17.8608 5.76457 17.8611 5.76247 17.8623 5.75977V5.75781C17.8606 5.76175 17.8607 5.76476 17.8604 5.76562Z" stroke="#333333" stroke-width="2"/>
</svg>
