<svg width="26" height="25" viewBox="0 0 26 25" fill="none" xmlns="http://www.w3.org/2000/svg">
<path d="M5.90909 0.5H8.27273V1.59091H5.90909V0.5ZM17.7273 0.5H20.0909V1.59091H17.7273V0.5ZM24.8182 4.86364V3.77273H21.2727V1.59091H20.0909V7.04545H17.7273V1.59091H16.5455V3.77273H9.45455V1.59091H8.27273V7.04545H5.90909V1.59091H4.72727V3.77273H1.18182V4.86364H0V23.4091H1.18182V24.5H24.8182V23.4091H26V4.86364H24.8182ZM23.6364 8.13636V11.4091H20.0909V8.13636H23.6364ZM23.6364 16.8636H20.0909V13.5909H23.6364V16.8636ZM23.6364 22.3182H20.0909V19.0455H23.6364V22.3182ZM2.36364 19.0455H5.90909V22.3182H2.36364V19.0455ZM2.36364 13.5909H5.90909V16.8636H2.36364V13.5909ZM17.7273 16.8636H14.1818V13.5909H17.7273V16.8636ZM11.8182 16.8636H8.27273V13.5909H11.8182V16.8636ZM8.27273 19.0455H11.8182V22.3182H8.27273V19.0455ZM14.1818 19.0455H17.7273V22.3182H14.1818V19.0455ZM17.7273 11.4091H14.1818V8.13636H17.7273V11.4091ZM11.8182 8.13636V11.4091H8.27273V8.13636H11.8182ZM5.90909 11.4091H2.36364V8.13636H5.90909V11.4091Z" fill="#333333"/>
</svg>
